<?xml version="1.0" encoding="utf-8"?>
<!-- Generator: Adobe Illustrator 24.1.2, SVG Export Plug-In . SVG Version: 6.00 Build 0)  -->
<svg version="1.1" id="Camada_1" xmlns="http://www.w3.org/2000/svg" xmlns:xlink="http://www.w3.org/1999/xlink" x="0px" y="0px"
	 viewBox="0 0 1000 1000" style="enable-background:new 0 0 1000 1000;" xml:space="preserve">
<style type="text/css">
	.st0{fill:#FEC007;}
</style>
<g>
	<path class="st0" d="M1000,405.5c-7.4,28-30.4,42.2-49.3,59.7c-59.9,55.4-120.2,110.3-180.6,165.2c-5.3,4.8-5.9,9-4.4,15.7
		c20.6,93.9,41,187.8,61.4,281.7c5.6,25.6-1.3,48.3-19.7,61.6c-20.4,14.7-41.2,13.7-62.2,0.5c-78.9-49.4-157.9-98.6-236.7-148.1
		c-6.2-3.9-10.5-3.7-16.6,0.1c-78.8,49.5-158,98.3-236.6,148.2c-35.8,22.7-73.2,2.5-82-30.1c-2.8-10.4-2.5-20.8-0.2-31.2
		c20.4-93.6,40.7-187.2,61.4-280.7c2-8.8,0.2-13.9-6.2-19.8C159.1,565.4,90.2,502.1,21.2,439C3,422.3-4.2,401.9,3.4,377.8
		c7.2-23.2,23.6-35.9,47-38.1c46.9-4.6,93.9-9.1,140.8-13.6c46-4.4,91.9-8.7,138-12.7c7.1-0.6,9.7-4.5,12.2-10.6
		c36-88.3,72.2-176.5,108.2-264.9c9.6-23.5,25.7-37.7,50.4-37.9c25.2-0.2,41.5,14.3,51.2,38.2c35.6,87.4,71.6,174.6,106.9,262.1
		c4,9.8,9.1,12.6,18.6,13.5c91.6,8.4,183.2,17.2,274.8,26c23.1,2.2,38,15.9,46.1,38.2c0.6,1.8-0.1,4.3,2.5,5
		C1000,390.5,1000,398,1000,405.5z"/>
</g>
</svg>
